<svg width="365" height="51" viewBox="0 0 365 51" fill="none" xmlns="http://www.w3.org/2000/svg">
<path d="M13.3438 43.4375C9.53125 43.4375 6.92708 43.4062 5.53125 43.3438L4.625 45.5C4.35417 46.1042 4.10417 46.7396 3.875 47.4062C3.39583 48.6979 2.72917 49.3438 1.875 49.3438C1.47917 49.3438 1.15625 49.2188 0.90625 48.9688C0.65625 48.7188 0.53125 48.4583 0.53125 48.1875C0.53125 47.7292 0.729167 47.2188 1.125 46.6562C1.75 45.7812 2.36458 44.6354 2.96875 43.2188C1.17708 43.0521 0.28125 42.5312 0.28125 41.6562C0.28125 40.7812 0.791667 40.3438 1.8125 40.3438C2.4375 40.3438 3.16667 40.4479 4 40.6562L19.5938 2.78125L40.9688 49H24.6875L22.0938 43.4375H13.3438ZM6.53125 40.9062C8.53125 41.0729 10.3229 41.1562 11.9062 41.1562H21.0625L13.25 24.3125L6.53125 40.9062ZM45.3438 44.8125C45.3438 44.5 45.4479 44.2188 45.6562 43.9688C45.8854 43.6979 46.1771 43.5625 46.5312 43.5625C46.8854 43.5625 47.1771 43.6667 47.4062 43.875C47.4062 43.875 47.6667 44.1146 48.1875 44.5938C50.3542 46.4896 53.3854 47.4375 57.2812 47.4375C59.9062 47.4375 61.5938 46.8958 62.3438 45.8125C62.5521 45.5208 62.6562 45.2292 62.6562 44.9375C62.6562 44.625 62.5938 44.3333 62.4688 44.0625C62.3646 43.7708 62.125 43.4271 61.75 43.0312C61.375 42.6146 60.8438 42.125 60.1562 41.5625L57.4062 39.3438C52.8646 35.8021 49.75 32.9271 48.0625 30.7188C46.5208 28.6979 45.75 26.6354 45.75 24.5312C45.75 21.8854 46.9688 19.6667 49.4062 17.875C51.9271 16 55.1875 15.0625 59.1875 15.0625C62 15.0625 64.2188 15.3854 65.8438 16.0312C67.4688 16.6771 68.6146 17.2708 69.2812 17.8125C69.9479 18.3333 70.2812 18.8125 70.2812 19.25C70.2812 20.1458 69.9271 20.5938 69.2188 20.5938C68.8854 20.5938 68.5729 20.4792 68.2812 20.25C68.0104 20 67.4583 19.5938 66.625 19.0312C65.7917 18.4479 64.6875 17.9896 63.3125 17.6562C61.9375 17.3229 60.6562 17.1562 59.4688 17.1562C58.2812 17.1562 57.4375 17.3438 56.9375 17.7188C56.4583 18.0938 56.2188 18.4688 56.2188 18.8438C56.2188 19.1979 56.2917 19.5417 56.4375 19.875C56.5833 20.1875 56.8542 20.5625 57.25 21C58.1667 22.0833 59.6354 23.3646 61.6562 24.8438C63.6771 26.3229 65.3854 27.6771 66.7812 28.9062C68.1771 30.1354 69.2708 31.2708 70.0625 32.3125C71.5 34.1875 72.2188 36.0833 72.2188 38C72.2188 39.9167 71.8646 41.5625 71.1562 42.9375C70.4479 44.2917 69.4375 45.4583 68.125 46.4375C65.3542 48.5417 61.6562 49.5938 57.0312 49.5938C53.3229 49.5938 50.2292 48.8854 47.75 47.4688C46.1458 46.5729 45.3438 45.6875 45.3438 44.8125ZM92.625 49.5938C84.4583 49.5938 80.375 45.8646 80.375 38.4062L80.3438 17.9062L76.75 18.0625C75.625 18.0625 75.0625 17.6354 75.0625 16.7812C75.0625 15.9271 75.6667 15.5 76.875 15.5L79.875 15.625H80.3438V10.7812L93.75 4.78125V15.625H97.9375L100.906 15.5C102.135 15.5 102.75 15.9375 102.75 16.8125C102.75 17.2083 102.573 17.5208 102.219 17.75C101.885 17.9583 101.5 18.0625 101.062 18.0625L97.1875 17.9062H93.75V47.2812C96.1875 47.2396 98.2188 46.5417 99.8438 45.1875C100.615 44.6042 101.156 43.8542 101.469 42.9375C101.802 42.0208 102.094 41.4375 102.344 41.1875C102.615 40.9167 102.927 40.7812 103.281 40.7812C103.635 40.7812 103.938 40.9271 104.188 41.2188C104.438 41.4896 104.562 41.8229 104.562 42.2188C104.562 42.5938 104.458 43.0208 104.25 43.5C104.042 43.9583 103.729 44.4479 103.312 44.9688C102.375 46.1354 101.292 47.0625 100.062 47.75C97.8333 48.9792 95.3542 49.5938 92.625 49.5938ZM109.906 15.625H123.344V25.4375C124.781 21.875 126.323 19.2604 127.969 17.5938C129.635 15.9062 131.302 15.0625 132.969 15.0625C133.906 15.0625 134.646 15.3125 135.188 15.8125C135.75 16.2917 136.031 16.8333 136.031 17.4375C136.031 18.0417 135.948 18.5208 135.781 18.875C135.615 19.2292 135.396 19.5312 135.125 19.7812C134.562 20.3021 134.031 20.5625 133.531 20.5625C132.74 20.5625 132.156 20.4792 131.781 20.3125C131.135 20.0208 130.562 19.875 130.062 19.875C129.562 19.875 128.927 20.2812 128.156 21.0938C127.385 21.8854 126.646 22.9896 125.938 24.4062C124.208 27.8646 123.344 31.6146 123.344 35.6562V49H109.906V15.625ZM137.219 32.125C137.219 29.625 137.667 27.3542 138.562 25.3125C139.479 23.25 140.729 21.4583 142.312 19.9375C145.729 16.6875 150.021 15.0625 155.188 15.0625C160.458 15.0625 164.75 16.75 168.062 20.125C171.229 23.3125 172.812 27.3438 172.812 32.2188C172.812 37.1146 171.188 41.2083 167.938 44.5C164.583 47.8958 160.292 49.5938 155.062 49.5938C149.958 49.5938 145.729 47.9792 142.375 44.75C138.938 41.4167 137.219 37.2083 137.219 32.125ZM154.188 47.25C154.354 47.2708 154.521 47.2812 154.688 47.2812H155.125C159.333 47.2812 162.865 45.9792 165.719 43.375C168.76 40.5625 170.281 36.875 170.281 32.3125C170.281 27.8542 168.854 24.2396 166 21.4688C163.188 18.7188 159.552 17.3438 155.094 17.3438H154.625C154.479 17.3438 154.333 17.3542 154.188 17.375V47.25Z" fill="#E0BE44"/>
<path d="M195.219 4.78125H208.219C214.281 4.78125 218.729 5.20833 221.562 6.0625C224.792 7.0625 227.281 8.34375 229.031 9.90625C230.802 11.4688 232.188 13.0833 233.188 14.75C235.229 18.1458 236.25 22 236.25 26.3125C236.25 33.1042 233.812 38.6042 228.938 42.8125C225.479 45.8333 221.406 47.6979 216.719 48.4062C214.115 48.8021 210.469 49 205.781 49H195.219V4.78125ZM211.156 46.4062C211.49 46.4271 211.792 46.4375 212.062 46.4375H212.781C218.427 46.4375 223.25 44.6771 227.25 41.1562C231.479 37.4479 233.594 32.5208 233.594 26.375C233.594 22.5 232.667 19.0104 230.812 15.9062C228.125 11.3854 223.875 8.64583 218.062 7.6875C216.167 7.375 213.865 7.19792 211.156 7.15625V46.4062ZM244.406 15.625H257.844V25.4375C259.281 21.875 260.823 19.2604 262.469 17.5938C264.135 15.9062 265.802 15.0625 267.469 15.0625C268.406 15.0625 269.146 15.3125 269.688 15.8125C270.25 16.2917 270.531 16.8333 270.531 17.4375C270.531 18.0417 270.448 18.5208 270.281 18.875C270.115 19.2292 269.896 19.5312 269.625 19.7812C269.062 20.3021 268.531 20.5625 268.031 20.5625C267.24 20.5625 266.656 20.4792 266.281 20.3125C265.635 20.0208 265.062 19.875 264.562 19.875C264.062 19.875 263.427 20.2812 262.656 21.0938C261.885 21.8854 261.146 22.9896 260.438 24.4062C258.708 27.8646 257.844 31.6146 257.844 35.6562V49H244.406V15.625ZM281.156 10.1562C279.01 10.1562 277.333 9.67708 276.125 8.71875C274.917 7.76042 274.312 6.5 274.312 4.9375C274.312 3.625 274.979 2.5 276.312 1.5625C277.729 0.5625 279.229 0.0625 280.812 0.0625C282.396 0.0625 283.615 0.21875 284.469 0.53125C285.344 0.84375 286.083 1.25 286.688 1.75C287.896 2.77083 288.5 3.95833 288.5 5.3125C288.5 6.66667 287.812 7.8125 286.438 8.75C285.062 9.6875 283.302 10.1562 281.156 10.1562ZM274.594 15.625H288.031V49H274.594V15.625ZM293 15.625H307.156L315.656 33.1562L321 22.5312C322.104 20.2604 322.792 18.5729 323.062 17.4688C323.354 16.3646 323.635 15.6875 323.906 15.4375C324.198 15.1875 324.542 15.0625 324.938 15.0625C325.354 15.0625 325.677 15.1979 325.906 15.4688C326.135 15.7396 326.25 16.0104 326.25 16.2812C326.25 16.5521 326.219 16.8229 326.156 17.0938C326.115 17.3646 326.021 17.7292 325.875 18.1875C325.562 19.0417 324.906 20.5208 323.906 22.625L310.156 50.4062L293 15.625ZM360.719 41.4062C361.531 41.4062 361.938 41.7812 361.938 42.5312C361.938 43.0938 361.573 43.7604 360.844 44.5312C357.552 47.9062 353.042 49.5938 347.312 49.5938C342.167 49.5938 337.833 48.0417 334.312 44.9375C330.667 41.7083 328.844 37.625 328.844 32.6875C328.844 27.6458 330.49 23.5 333.781 20.25C337.26 16.7917 341.885 15.0625 347.656 15.0625C352.281 15.0625 356.167 16.4688 359.312 19.2812C362.708 22.3021 364.406 26.2708 364.406 31.1875C364.406 31.8958 364.385 32.6458 364.344 33.4375H343.719V46.8438C345.135 47.1354 346.729 47.2812 348.5 47.2812C352.25 47.2812 355.448 46.0417 358.094 43.5625C358.635 43.0208 359.021 42.5938 359.25 42.2812C359.729 41.6979 360.219 41.4062 360.719 41.4062ZM352.375 17.9375C351.021 17.5417 349.49 17.3438 347.781 17.3438C346.073 17.3438 344.719 17.4583 343.719 17.6875V31.1562H352.375V17.9375Z" fill="white"/>
</svg>
